<svg xmlns="http://www.w3.org/2000/svg" xmlns:xlink="http://www.w3.org/1999/xlink" version="1.1" width="256" height="256" viewBox="0 0 256 256" xml:space="preserve">
<desc>Created with Fabric.js 1.7.22</desc>
<defs>
</defs>
<g transform="translate(128 128) scale(0.72 0.72)" style="">
	<g style="stroke: none; stroke-width: 0; stroke-dasharray: none; stroke-linecap: butt; stroke-linejoin: miter; stroke-miterlimit: 10; fill-rule: nonzero; opacity: 1;" transform="translate(-175.05 -175.05000000000004) scale(3.89 3.89)" >
	<path d="M 45 68.5 c -12.958 0 -23.5 -10.542 -23.5 -23.5 S 32.042 21.5 45 21.5 S 68.5 32.042 68.5 45 S 57.958 68.5 45 68.5 z M 45 25.5 c -10.752 0 -19.5 8.748 -19.5 19.5 c 0 10.752 8.748 19.5 19.5 19.5 c 10.752 0 19.5 -8.748 19.5 -19.5 C 64.5 34.248 55.752 25.5 45 25.5 z" style="stroke: none; stroke-width: 1; stroke-dasharray: none; stroke-linecap: butt; stroke-linejoin: miter; stroke-miterlimit: 10; fill-rule: nonzero; opacity: 1;" transform=" matrix(1 0 0 1 0 0) " stroke-linecap="round" />
	<path d="M 38.796 19.255 c -0.583 0 -1.146 -0.255 -1.53 -0.712 c -0.478 -0.568 -0.602 -1.354 -0.322 -2.042 l 6.204 -15.255 C 43.454 0.493 44.187 0 45 0 s 1.546 0.493 1.853 1.247 l 6.204 15.255 c 0.279 0.688 0.155 1.473 -0.322 2.041 c -0.479 0.568 -1.231 0.825 -1.956 0.667 c -3.812 -0.832 -7.749 -0.832 -11.556 0 C 39.08 19.24 38.938 19.255 38.796 19.255 z M 45 14.583 c 1.005 0 2.013 0.05 3.019 0.148 L 45 7.309 l -3.019 7.423 C 42.987 14.633 43.995 14.583 45 14.583 z" style="stroke: none; stroke-width: 1; stroke-dasharray: none; stroke-linecap: butt; stroke-linejoin: miter; stroke-miterlimit: 10; fill-rule: nonzero; opacity: 1;" transform=" matrix(1 0 0 1 0 0) " stroke-linecap="round" />
	<path d="M 45 90 c -0.813 0 -1.546 -0.493 -1.853 -1.246 l -6.204 -15.256 c -0.28 -0.688 -0.156 -1.474 0.323 -2.042 c 0.478 -0.568 1.231 -0.826 1.957 -0.666 c 3.809 0.831 7.743 0.833 11.555 0 c 0.729 -0.162 1.479 0.098 1.957 0.666 c 0.478 0.568 0.602 1.354 0.322 2.042 l -6.204 15.256 C 46.546 89.507 45.813 90 45 90 z M 41.981 75.269 L 45 82.69 l 3.019 -7.422 C 46.007 75.466 43.993 75.466 41.981 75.269 z" style="stroke: none; stroke-width: 1; stroke-dasharray: none; stroke-linecap: butt; stroke-linejoin: miter; stroke-miterlimit: 10; fill-rule: nonzero; opacity: 1;" transform=" matrix(1 0 0 1 0 0) " stroke-linecap="round" />
	<path d="M 17.255 53.204 c -0.254 0 -0.509 -0.049 -0.753 -0.147 L 1.247 46.853 C 0.493 46.546 0 45.813 0 45 s 0.493 -1.546 1.247 -1.853 l 15.255 -6.204 c 0.688 -0.279 1.473 -0.155 2.042 0.322 c 0.568 0.478 0.824 1.231 0.666 1.957 c -0.416 1.904 -0.626 3.849 -0.626 5.778 c 0 1.929 0.21 3.873 0.626 5.778 c 0.158 0.725 -0.099 1.479 -0.667 1.956 C 18.176 53.043 17.719 53.204 17.255 53.204 z M 7.309 45 l 7.423 3.019 c -0.099 -1.006 -0.148 -2.014 -0.148 -3.019 s 0.05 -2.013 0.148 -3.019 L 7.309 45 z" style="stroke: none; stroke-width: 1; stroke-dasharray: none; stroke-linecap: butt; stroke-linejoin: miter; stroke-miterlimit: 10; fill-rule: nonzero; opacity: 1;" transform=" matrix(1 0 0 1 0 0) " stroke-linecap="round" />
	<path d="M 72.744 53.204 c -0.463 0 -0.921 -0.161 -1.288 -0.47 c -0.567 -0.479 -0.824 -1.231 -0.666 -1.957 c 0.416 -1.905 0.627 -3.85 0.627 -5.777 c 0 -1.929 -0.211 -3.873 -0.627 -5.777 c -0.158 -0.726 0.099 -1.479 0.666 -1.957 c 0.568 -0.479 1.353 -0.603 2.042 -0.323 l 15.256 6.204 C 89.507 43.454 90 44.187 90 45 s -0.493 1.546 -1.246 1.853 l -15.256 6.204 C 73.254 53.155 72.998 53.204 72.744 53.204 z M 75.269 41.981 c 0.099 1.006 0.148 2.014 0.148 3.019 s -0.05 2.013 -0.148 3.019 L 82.69 45 L 75.269 41.981 z" style="stroke: none; stroke-width: 1; stroke-dasharray: none; stroke-linecap: butt; stroke-linejoin: miter; stroke-miterlimit: 10; fill-rule: nonzero; opacity: 1;" transform=" matrix(1 0 0 1 0 0) " stroke-linecap="round" />
	<path d="M 20.995 31.769 c -0.057 0 -0.114 -0.002 -0.172 -0.007 c -0.74 -0.063 -1.383 -0.532 -1.671 -1.215 l -6.4 -15.174 c -0.316 -0.75 -0.147 -1.616 0.429 -2.191 c 0.575 -0.575 1.442 -0.745 2.191 -0.429 l 15.174 6.4 c 0.684 0.289 1.152 0.932 1.215 1.671 c 0.063 0.739 -0.288 1.453 -0.912 1.854 c -1.643 1.055 -3.167 2.28 -4.529 3.643 s -2.588 2.886 -3.643 4.529 C 22.308 31.425 21.672 31.769 20.995 31.769 z M 18.348 18.348 l 3.114 7.384 c 0.642 -0.781 1.319 -1.53 2.03 -2.24 c 0.71 -0.71 1.458 -1.388 2.24 -2.03 L 18.348 18.348 z" style="stroke: none; stroke-width: 1; stroke-dasharray: none; stroke-linecap: butt; stroke-linejoin: miter; stroke-miterlimit: 10; fill-rule: nonzero; opacity: 1;" transform=" matrix(1 0 0 1 0 0) " stroke-linecap="round" />
	<path d="M 75.405 77.405 c -0.263 0 -0.526 -0.052 -0.777 -0.157 l -15.174 -6.4 c -0.684 -0.288 -1.151 -0.932 -1.215 -1.671 c -0.064 -0.74 0.287 -1.454 0.911 -1.854 c 1.641 -1.054 3.165 -2.279 4.529 -3.643 c 1.363 -1.364 2.589 -2.889 3.643 -4.529 c 0.4 -0.623 1.112 -0.983 1.854 -0.911 c 0.739 0.063 1.383 0.531 1.671 1.215 l 6.4 15.174 c 0.316 0.75 0.146 1.616 -0.429 2.191 C 76.437 77.202 75.925 77.405 75.405 77.405 z M 64.269 68.537 l 7.383 3.114 l -3.114 -7.383 c -0.641 0.78 -1.318 1.528 -2.028 2.239 c -0.001 0 -0.001 0 -0.001 0.001 C 65.797 67.219 65.049 67.896 64.269 68.537 z M 65.094 65.094 h 0.01 H 65.094 z" style="stroke: none; stroke-width: 1; stroke-dasharray: none; stroke-linecap: butt; stroke-linejoin: miter; stroke-miterlimit: 10; fill-rule: nonzero; opacity: 1;" transform=" matrix(1 0 0 1 0 0) " stroke-linecap="round" />
	<path d="M 69.005 31.769 c -0.678 0 -1.313 -0.343 -1.683 -0.919 c -1.054 -1.641 -2.279 -3.165 -3.643 -4.529 c -1.363 -1.362 -2.887 -2.588 -4.529 -3.643 c -0.624 -0.401 -0.976 -1.115 -0.911 -1.854 c 0.063 -0.74 0.531 -1.383 1.215 -1.671 l 15.174 -6.4 c 0.748 -0.316 1.615 -0.147 2.191 0.429 c 0.575 0.575 0.745 1.442 0.429 2.191 l -6.4 15.174 c -0.288 0.684 -0.932 1.152 -1.672 1.215 C 69.119 31.766 69.062 31.769 69.005 31.769 z M 64.268 21.463 c 0.781 0.641 1.53 1.319 2.24 2.029 c 0 0 0 0 0 0 c 0.711 0.71 1.388 1.458 2.029 2.239 l 3.114 -7.383 L 64.268 21.463 z" style="stroke: none; stroke-width: 1; stroke-dasharray: none; stroke-linecap: butt; stroke-linejoin: miter; stroke-miterlimit: 10; fill-rule: nonzero; opacity: 1;" transform=" matrix(1 0 0 1 0 0) " stroke-linecap="round" />
	<path d="M 14.595 77.405 c -0.521 0 -1.032 -0.203 -1.415 -0.586 c -0.576 -0.575 -0.745 -1.441 -0.429 -2.191 l 6.4 -15.174 c 0.289 -0.684 0.932 -1.151 1.671 -1.215 c 0.74 -0.076 1.453 0.287 1.854 0.912 c 1.052 1.639 2.278 3.162 3.643 4.528 c 1.364 1.363 2.887 2.589 4.528 3.643 c 0.625 0.4 0.976 1.114 0.912 1.854 c -0.063 0.74 -0.532 1.384 -1.215 1.672 l -15.174 6.4 C 15.121 77.354 14.856 77.405 14.595 77.405 z M 21.463 64.268 l -3.115 7.384 l 7.383 -3.114 c -0.781 -0.642 -1.529 -1.318 -2.239 -2.029 h 0 C 22.781 65.797 22.104 65.049 21.463 64.268 z" style="stroke: none; stroke-width: 1; stroke-dasharray: none; stroke-linecap: butt; stroke-linejoin: miter; stroke-miterlimit: 10; fill-rule: nonzero; opacity: 1;" transform=" matrix(1 0 0 1 0 0) " stroke-linecap="round" />
</g>
</g>
</svg>